<svg width="80" height="81" viewBox="0 0 80 81" fill="none" xmlns="http://www.w3.org/2000/svg">
<g filter="url(#filter0_d_3_153)">
<rect x="6" y="6.5" width="64" height="64" rx="32" fill="white" shape-rendering="crispEdges"/>
<path d="M43.752 42.1415C43.7519 42.1415 43.7518 42.1415 43.7518 42.1415C43.3073 42.1418 42.8811 42.3185 42.5668 42.6328C42.2526 42.947 42.076 43.3729 42.0755 43.8172C42.0755 43.8175 42.0755 43.8177 42.0755 43.8179L42.062 46.4345L42.062 46.4348L43.7521 42.3915L43.752 42.1415ZM43.752 42.1415L46.3587 42.1381M43.752 42.1415L46.3587 42.1381M46.3587 42.1381C46.3588 42.1381 46.3589 42.1381 46.359 42.1381M46.3587 42.1381L46.359 42.1381M46.359 42.1381C46.4547 42.1377 46.5496 42.1563 46.6381 42.1928C46.7267 42.2293 46.8072 42.2829 46.8749 42.3507C46.9427 42.4184 46.9963 42.4989 47.0328 42.5875C47.0692 42.6758 47.0878 42.7704 47.0875 42.8659M46.359 42.1381L42.7906 47.1636C42.7906 47.1636 42.7907 47.1636 42.7908 47.1636C42.9825 47.1629 43.1661 47.0865 43.3016 46.951C43.4372 46.8154 43.5137 46.6317 43.5142 46.4399L43.5218 44.6345L49.9581 51.0707C50.0942 51.2069 50.2788 51.2833 50.4713 51.2833C50.6638 51.2833 50.8485 51.2069 50.9846 51.0707C51.1207 50.9346 51.1972 50.75 51.1972 50.5575C51.1972 50.365 51.1207 50.1804 50.9846 50.0443L44.5315 43.5911L46.3587 43.5937C46.3588 43.5937 46.359 43.5937 46.3591 43.5937C46.4548 43.594 46.5496 43.5754 46.6381 43.539C46.7267 43.5025 46.8072 43.4488 46.8749 43.3811C46.9427 43.3133 46.9963 43.2328 47.0328 43.1442C47.0692 43.0559 47.0878 42.9614 47.0875 42.8659M47.0875 42.8659C47.0875 42.8662 47.0875 42.8666 47.0875 42.8669L46.8375 42.8659L47.0875 42.8649C47.0875 42.8652 47.0875 42.8655 47.0875 42.8659Z" fill="#FF8E0A" stroke="#FF8E0A" stroke-width="0.5"/>
<path d="M32.1843 34.9591C32.1843 34.9591 32.1844 34.9591 32.1845 34.9591C32.6289 34.9587 33.0551 34.782 33.3694 34.4677C33.6836 34.1536 33.8603 33.7276 33.8608 33.2833C33.8608 33.2831 33.8608 33.2828 33.8608 33.2826L33.8742 30.666L33.8742 30.6658L32.1841 34.7091L32.1843 34.9591ZM32.1843 34.9591L29.5775 34.9624M32.1843 34.9591L29.5775 34.9624M29.5775 34.9624C29.5774 34.9624 29.5773 34.9624 29.5772 34.9624M29.5775 34.9624L29.5772 34.9624M29.5772 34.9624C29.4815 34.9628 29.3867 34.9442 29.2982 34.9078C29.2096 34.8713 29.1291 34.8176 29.0613 34.7498C28.9936 34.6821 28.9399 34.6016 28.9034 34.513C28.8671 34.4247 28.8485 34.3301 28.8487 34.2347M29.5772 34.9624L33.1457 29.937C33.1456 29.937 33.1455 29.937 33.1454 29.937C32.9538 29.9376 32.7701 30.014 32.6346 30.1495C32.499 30.2851 32.4226 30.4689 32.422 30.6606L32.4144 32.4661L25.9781 26.0298C25.842 25.8937 25.6574 25.8172 25.4649 25.8172C25.2724 25.8172 25.0878 25.8937 24.9517 26.0298C24.8155 26.1659 24.7391 26.3505 24.7391 26.543C24.7391 26.7355 24.8155 26.9201 24.9517 27.0563L31.4048 33.5094L29.5775 33.5069C29.5774 33.5069 29.5772 33.5069 29.5771 33.5069C29.4814 33.5065 29.3866 33.5251 29.2982 33.5615C29.2096 33.598 29.1291 33.6517 29.0613 33.7195C28.9936 33.7872 28.9399 33.8677 28.9034 33.9563C28.8671 34.0446 28.8485 34.1392 28.8487 34.2347M28.8487 34.2347C28.8487 34.2343 28.8487 34.234 28.8487 34.2336L29.0987 34.2347L28.8487 34.2357C28.8487 34.2353 28.8487 34.235 28.8487 34.2347Z" fill="#FF8E0A" stroke="#FF8E0A" stroke-width="0.5"/>
<path d="M32.7725 42.1415C32.7726 42.1415 32.7726 42.1415 32.7727 42.1415C33.2172 42.1418 33.6434 42.3185 33.9577 42.6328C34.2718 42.947 34.4485 43.3729 34.449 43.8172C34.449 43.8175 34.449 43.8177 34.449 43.8179L34.4624 46.4345L34.4624 46.4348L32.7724 42.3915L32.7725 42.1415ZM32.7725 42.1415L30.1658 42.1381M32.7725 42.1415L30.1658 42.1381M30.1658 42.1381C30.1657 42.1381 30.1656 42.1381 30.1655 42.1381M30.1658 42.1381L30.1655 42.1381M30.1655 42.1381C30.0698 42.1377 29.9749 42.1563 29.8864 42.1928C29.7978 42.2293 29.7173 42.2829 29.6496 42.3507C29.5818 42.4184 29.5281 42.4989 29.4916 42.5875C29.4553 42.6758 29.4367 42.7704 29.437 42.8659M30.1655 42.1381L33.7339 47.1636C33.7338 47.1636 33.7337 47.1636 33.7336 47.1636C33.542 47.1629 33.3584 47.0865 33.2228 46.951C33.0872 46.8154 33.0108 46.6317 33.0102 46.4399L33.0027 44.6345L26.5664 51.0707C26.4303 51.2069 26.2456 51.2833 26.0531 51.2833C25.8606 51.2833 25.676 51.2069 25.5399 51.0707C25.4038 50.9346 25.3273 50.75 25.3273 50.5575C25.3273 50.365 25.4038 50.1804 25.5399 50.0443L31.993 43.5911L30.1658 43.5937C30.1656 43.5937 30.1655 43.5937 30.1653 43.5937C30.0697 43.594 29.9749 43.5754 29.8864 43.539C29.7978 43.5025 29.7173 43.4488 29.6496 43.3811C29.5818 43.3133 29.5281 43.2328 29.4917 43.1442C29.4553 43.0559 29.4367 42.9614 29.437 42.8659M29.437 42.8659C29.437 42.8662 29.437 42.8666 29.437 42.8669L29.687 42.8659L29.437 42.8649C29.437 42.8652 29.437 42.8655 29.437 42.8659Z" fill="#FF8E0A" stroke="#FF8E0A" stroke-width="0.5"/>
<path d="M43.1637 34.9591C43.1637 34.9591 43.1636 34.9591 43.1635 34.9591C42.7191 34.9587 42.2929 34.782 41.9786 34.4677C41.6644 34.1536 41.4877 33.7276 41.4872 33.2833C41.4872 33.2831 41.4872 33.2828 41.4872 33.2826L41.4738 30.666L41.4738 30.6658L43.1639 34.7091L43.1637 34.9591ZM43.1637 34.9591L45.7705 34.9624M43.1637 34.9591L45.7705 34.9624M45.7705 34.9624C45.7706 34.9624 45.7707 34.9624 45.7708 34.9624M45.7705 34.9624L45.7708 34.9624M45.7708 34.9624C45.8665 34.9628 45.9613 34.9442 46.0498 34.9078C46.1384 34.8713 46.2189 34.8176 46.2867 34.7498C46.3544 34.6821 46.4081 34.6016 46.4446 34.513C46.4809 34.4247 46.4995 34.3301 46.4993 34.2347M45.7708 34.9624L42.2023 29.937C42.2024 29.937 42.2025 29.937 42.2026 29.937C42.3942 29.9376 42.5779 30.014 42.7134 30.1495C42.849 30.2851 42.9254 30.4689 42.926 30.6606L42.9336 32.4661L49.3699 26.0298C49.506 25.8937 49.6906 25.8172 49.8831 25.8172C50.0756 25.8172 50.2602 25.8937 50.3963 26.0298C50.5325 26.1659 50.6089 26.3505 50.6089 26.543C50.6089 26.7355 50.5325 26.9201 50.3963 27.0563L43.9432 33.5094L45.7705 33.5069C45.7706 33.5069 45.7708 33.5069 45.7709 33.5069C45.8666 33.5065 45.9614 33.5251 46.0498 33.5615C46.1384 33.598 46.2189 33.6517 46.2867 33.7195C46.3544 33.7872 46.4081 33.8677 46.4446 33.9563C46.4809 34.0446 46.4995 34.1392 46.4993 34.2347M46.4993 34.2347C46.4993 34.2343 46.4993 34.234 46.4993 34.2336L46.2493 34.2347L46.4993 34.2357C46.4993 34.2353 46.4993 34.235 46.4993 34.2347Z" fill="#FF8E0A" stroke="#FF8E0A" stroke-width="0.5"/>
</g>
<defs>
<filter id="filter0_d_3_153" x="0" y="0.5" width="80" height="80" filterUnits="userSpaceOnUse" color-interpolation-filters="sRGB">
<feFlood flood-opacity="0" result="BackgroundImageFix"/>
<feColorMatrix in="SourceAlpha" type="matrix" values="0 0 0 0 0 0 0 0 0 0 0 0 0 0 0 0 0 0 127 0" result="hardAlpha"/>
<feOffset dx="2" dy="2"/>
<feGaussianBlur stdDeviation="4"/>
<feComposite in2="hardAlpha" operator="out"/>
<feColorMatrix type="matrix" values="0 0 0 0 0.6 0 0 0 0 0.6 0 0 0 0 0.6 0 0 0 0.15 0"/>
<feBlend mode="normal" in2="BackgroundImageFix" result="effect1_dropShadow_3_153"/>
<feBlend mode="normal" in="SourceGraphic" in2="effect1_dropShadow_3_153" result="shape"/>
</filter>
</defs>
</svg>
