<svg width="340" height="340" viewBox="0 0 340 340" fill="none" xmlns="http://www.w3.org/2000/svg">
<path d="M298.333 5H41.6667C21.4162 5 5 21.4162 5 41.6667V298.333C5 318.584 21.4162 335 41.6667 335H298.333C318.584 335 335 318.584 335 298.333V41.6667C335 21.4162 318.584 5 298.333 5Z" stroke="#EEEEEE" stroke-width="10" stroke-linecap="round" stroke-linejoin="round"/>
<path d="M105.833 133.333C121.021 133.333 133.333 121.021 133.333 105.833C133.333 90.6455 121.021 78.3334 105.833 78.3334C90.6455 78.3334 78.3333 90.6455 78.3333 105.833C78.3333 121.021 90.6455 133.333 105.833 133.333Z" stroke="#EEEEEE" stroke-width="10" stroke-linecap="round" stroke-linejoin="round"/>
<path d="M335 225L243.333 133.333L41.6667 335" stroke="#EEEEEE" stroke-width="10" stroke-linecap="round" stroke-linejoin="round"/>
</svg>
