<svg width="1440" height="488" viewBox="0 0 1440 488" fill="none" xmlns="http://www.w3.org/2000/svg">
<path opacity="0.3" d="M506 262.708C539.967 247.661 573.933 232.619 607.9 217.572C635.403 218.987 662.917 220.401 690.42 221.816C723.266 203.815 756.112 185.809 788.958 167.808C825.259 167.808 861.551 167.808 897.852 167.808C930.904 148.105 963.964 128.398 997.025 108.695C1025.04 110.632 1053.06 112.568 1081.07 114.499C1115.78 96.6861 1150.49 78.8783 1185.2 61.0653C1217.08 62.652 1248.96 64.2386 1280.84 65.8304C1310.02 49.7032 1339.2 33.5708 1368.38 17.4435C1392.23 13.9624 1416.07 10.4812 1439.93 7C1439.95 92.3333 1439.97 177.667 1440 263C1128.68 262.901 817.34 262.802 506 262.708Z" fill="url(#paint0_linear_14_21)" fill-opacity="0.2"/>
<path opacity="0.3" d="M506 487.722C539.967 473.675 573.933 459.632 607.9 445.589C635.403 446.91 662.917 448.23 690.42 449.55C723.266 432.745 756.112 415.935 788.958 399.129C825.259 399.129 861.551 399.129 897.852 399.129C930.913 380.735 963.964 362.336 997.025 343.942C1025.04 345.75 1053.06 347.558 1081.07 349.361C1115.78 332.73 1150.49 316.105 1185.2 299.475C1217.08 300.956 1248.96 302.438 1280.84 303.924C1310.02 288.867 1339.2 273.806 1368.38 258.75C1392.23 255.5 1416.07 252.25 1439.93 249C1439.95 328.667 1439.97 408.333 1440 488C1128.68 487.903 817.34 487.81 506 487.722Z" fill="url(#paint1_linear_14_21)" fill-opacity="0.3"/>
<path opacity="0.3" d="M960 472.18C925.208 446.223 890.415 420.275 855.623 394.317C827.45 396.757 799.268 399.197 771.096 401.637C737.451 370.584 703.807 339.522 670.162 308.468C632.978 308.468 595.804 308.468 558.62 308.468C524.765 274.48 490.901 240.482 457.036 206.494C428.337 209.834 399.639 213.175 370.95 216.506C335.392 185.777 299.844 155.056 264.286 124.327C231.627 127.064 198.977 129.801 166.318 132.548C136.433 104.727 106.539 76.8965 76.654 49.0754C52.2123 43.0701 24.4309 34.0054 0.00828459 28C-0.0204141 175.208 0.0369834 340.788 0.00828466 487.996C24.4661 487.983 61.7316 488.009 86.1894 487.996C380.64 487.839 665.548 472.338 960 472.18Z" fill="url(#paint2_linear_14_21)" fill-opacity="0.2"/>
<path d="M851 487.739C820.052 474.514 789.104 461.294 758.156 448.073C733.096 449.316 708.028 450.56 682.968 451.803C653.041 435.982 623.114 420.156 593.187 404.335C560.112 404.335 527.045 404.335 493.97 404.335C463.847 387.018 433.733 369.697 403.61 352.381C378.082 354.083 352.555 355.784 327.035 357.482C295.407 341.826 263.786 326.174 232.157 310.518C203.107 311.913 174.065 313.307 145.014 314.706C118.432 300.532 91.8401 286.353 65.2573 272.179C43.5247 269.119 21.8006 266.06 0.0680635 263C0.0425358 338 0.0255547 413 2.69779e-05 488C283.655 487.908 567.328 487.821 851 487.739Z" fill="url(#paint3_linear_14_21)"/>
<defs>
<linearGradient id="paint0_linear_14_21" x1="971.925" y1="320.35" x2="974.563" y2="-127.892" gradientUnits="userSpaceOnUse">
<stop stop-color="white" stop-opacity="0"/>
<stop offset="0.357034" stop-color="#F7AA5E"/>
</linearGradient>
<linearGradient id="paint1_linear_14_21" x1="971.925" y1="541.538" x2="974.224" y2="123.061" gradientUnits="userSpaceOnUse">
<stop stop-color="white" stop-opacity="0"/>
<stop offset="0.5224" stop-color="#F7AA5E"/>
</linearGradient>
<linearGradient id="paint2_linear_14_21" x1="744.547" y1="424.494" x2="-433.62" y2="120.772" gradientUnits="userSpaceOnUse">
<stop stop-color="white" stop-opacity="0"/>
<stop offset="0.4375" stop-color="#F7AA5E"/>
<stop offset="1" stop-color="#F7AA5E"/>
</linearGradient>
<linearGradient id="paint3_linear_14_21" x1="133.619" y1="523.5" x2="389.441" y2="125.604" gradientUnits="userSpaceOnUse">
<stop stop-color="#FCFCFC"/>
<stop offset="0.411458" stop-color="#FDF2E8"/>
</linearGradient>
</defs>
</svg>
