<svg width="1440" height="598" viewBox="0 0 1440 598" fill="none" xmlns="http://www.w3.org/2000/svg">
<path opacity="0.3" d="M490 275.685C524.548 259.463 559.097 243.246 593.645 227.023C621.62 228.548 649.605 230.073 677.58 231.598C710.988 212.191 744.397 192.778 777.805 173.371C814.728 173.371 851.642 173.371 888.565 173.371C922.183 152.129 955.81 130.882 989.437 109.64C1017.93 111.728 1046.43 113.816 1074.92 115.897C1110.23 96.6928 1145.53 77.4938 1180.83 58.2892C1213.26 59.9998 1245.69 61.7103 1278.12 63.4266C1307.79 46.0394 1337.48 28.6466 1367.15 11.2595C1391.41 7.5063 1415.66 3.75315 1439.92 0C1439.95 92 1439.97 184 1440 276C1123.35 275.893 806.673 275.786 490 275.685Z" fill="url(#paint0_linear_1_6)" fill-opacity="0.6"/>
<path opacity="0.3" d="M637.778 597.693C614.584 581.915 591.39 566.143 568.196 550.365C549.415 551.848 530.628 553.331 511.847 554.814C489.419 535.938 466.99 517.057 444.561 498.182C419.773 498.182 394.991 498.182 370.203 498.182C347.634 477.522 325.059 456.856 302.484 436.197C283.352 438.227 264.22 440.257 245.095 442.282C221.391 423.604 197.693 404.931 173.989 386.252C152.217 387.916 130.452 389.579 108.68 391.249C88.7579 374.338 68.8292 357.421 48.9068 340.51C32.6194 336.86 16.3384 333.21 0.0510176 329.559C0.031886 419.039 0.0191316 508.52 0 598C212.59 597.896 425.181 597.797 637.778 597.693Z" fill="url(#paint1_linear_1_6)" fill-opacity="0.3"/>
<path opacity="0.3" d="M877 393.895C845.107 371.128 813.213 348.368 781.32 325.6C755.495 327.741 729.661 329.881 703.836 332.021C672.995 304.783 642.154 277.538 611.313 250.301C577.228 250.301 543.151 250.301 509.065 250.301C478.031 220.489 446.989 190.669 415.946 160.857C389.638 163.787 363.331 166.717 337.032 169.639C304.438 142.686 271.852 115.74 239.257 88.7872C209.319 91.1879 179.39 93.5887 149.452 95.9973C122.057 71.595 94.6539 47.1847 67.2592 22.7824C44.8541 17.515 22.4577 12.2475 0.070153 6.9801C0.0438456 136.099 0.0263074 265.219 0 394.338C292.336 394.188 584.664 394.046 877 393.895Z" fill="url(#paint2_linear_1_6)" fill-opacity="0.2"/>
<path opacity="0.3" d="M465 557.508C500.458 532.175 535.915 506.851 571.373 481.518C600.084 483.9 628.805 486.281 657.516 488.662C691.804 458.356 726.091 428.041 760.379 397.735C798.274 397.735 836.159 397.735 874.054 397.735C908.556 364.564 943.068 331.385 977.58 298.214C1006.83 301.474 1036.07 304.734 1065.31 307.985C1101.55 277.995 1137.78 248.014 1174.01 218.024C1207.3 220.695 1240.57 223.367 1273.86 226.047C1304.31 198.895 1334.78 171.734 1365.23 144.583C1390.13 138.722 1415.02 132.861 1439.92 127C1439.95 270.667 1439.97 414.333 1440 558C1115.01 557.833 790.007 557.666 465 557.508Z" fill="url(#paint3_linear_1_6)" fill-opacity="0.2"/>
<defs>
<linearGradient id="paint0_linear_1_6" x1="963.906" y1="337.83" x2="966.921" y2="-145.428" gradientUnits="userSpaceOnUse">
<stop stop-color="white" stop-opacity="0"/>
<stop offset="0.357034" stop-color="#F7AA5E"/>
</linearGradient>
<linearGradient id="paint1_linear_1_6" x1="319.626" y1="658.138" x2="315.378" y2="188.136" gradientUnits="userSpaceOnUse">
<stop stop-color="white" stop-opacity="0"/>
<stop offset="0.5224" stop-color="#F7AA5E"/>
</linearGradient>
<linearGradient id="paint2_linear_1_6" x1="679.5" y1="352.069" x2="-394.324" y2="62.762" gradientUnits="userSpaceOnUse">
<stop stop-color="white" stop-opacity="0"/>
<stop offset="0.4375" stop-color="#F7AA5E"/>
<stop offset="1" stop-color="#F7AA5E"/>
</linearGradient>
<linearGradient id="paint3_linear_1_6" x1="1009.5" y1="266.5" x2="1026.11" y2="569.004" gradientUnits="userSpaceOnUse">
<stop stop-color="#F7AA5E"/>
<stop offset="0.577124" stop-color="#F7AA5E"/>
<stop offset="1" stop-color="white" stop-opacity="0"/>
</linearGradient>
</defs>
</svg>
