<svg width="48" height="42" viewBox="0 0 48 42" fill="none" xmlns="http://www.w3.org/2000/svg">
<path d="M12.4432 39.5133L12.4427 39.5128L1.46247 26.3352C0.512509 25.1944 0.512509 23.298 1.46247 22.1572C1.9216 21.6063 2.49035 21.3634 3.0259 21.3634C3.56151 21.3634 4.13033 21.6063 4.58948 22.1574L14.9221 34.5623L15.4984 35.2542L16.0747 34.5623L43.4105 1.74395C43.4105 1.74392 43.4106 1.74389 43.4106 1.74386C43.8697 1.19286 44.4385 0.950012 44.9741 0.950012C45.5097 0.950012 46.0785 1.19289 46.5377 1.74395C47.4875 2.88478 47.4874 4.78087 46.5376 5.92168C46.5376 5.92173 46.5376 5.92177 46.5375 5.92181L18.554 39.5128L18.5536 39.5133C17.7166 40.5199 16.6131 41.0506 15.4988 41.05H15.498C14.3837 41.0506 13.2802 40.5199 12.4432 39.5133Z" fill="#272727" stroke="#FCFCFC" stroke-width="1.5"/>
</svg>
