<svg width="935" height="473" viewBox="0 0 935 473" fill="none" xmlns="http://www.w3.org/2000/svg">
<path d="M41.0726 295.047L184.941 252.797C194.68 249.937 203.927 245.611 212.363 239.967L293.292 185.832C306.682 176.875 322.038 171.286 338.053 169.54L428.787 159.646C450.937 157.231 471.646 147.488 487.627 131.962L510.368 109.87C526.307 94.3852 546.951 84.651 569.038 82.2044L656.245 72.5446C674.535 70.5186 691.912 63.4849 706.462 52.2179L772.287 1.24436" stroke="#E3AD6E" stroke-width="2" stroke-linecap="round" stroke-linejoin="round" stroke-dasharray="6 12"/>
<path d="M749.5 4L772.451 1L770.5 20.5" stroke="#E3AD6E" stroke-width="2" stroke-linecap="round" stroke-linejoin="round"/>
<path d="M0 462.5V443.5V408C0 402.477 4.47715 398 10 398H221.654C227.176 398 231.654 393.523 231.654 388V310C231.654 304.477 236.131 300 241.654 300H475.844C481.367 300 485.844 295.523 485.844 290V209.5C485.844 203.977 490.321 199.5 495.844 199.5H693.346C698.869 199.5 703.346 195.023 703.346 189.5V100C703.346 94.4772 707.824 90 713.346 90H924.476C929.999 90 934.476 94.4772 934.476 100V462.5C934.476 468.023 929.999 472.5 924.476 472.5H10C4.47715 472.5 0 468.023 0 462.5Z" fill="url(#paint0_linear_15_62)" fill-opacity="0.8"/>
<path d="M73.966 369.273V353.545H77.5342V369.273H73.966ZM67.8865 363.193V359.625H83.6137V363.193H67.8865ZM96.6791 373.318C95.1639 373.318 93.8079 373.034 92.6109 372.466C91.4139 371.89 90.4632 371.102 89.7586 370.102C89.0616 369.102 88.6904 367.958 88.645 366.67H92.7359C92.8116 367.625 93.2245 368.405 93.9745 369.011C94.7245 369.61 95.626 369.909 96.6791 369.909C97.5048 369.909 98.2397 369.72 98.8836 369.341C99.5276 368.962 100.035 368.436 100.406 367.761C100.778 367.087 100.959 366.318 100.952 365.455C100.959 364.576 100.774 363.795 100.395 363.114C100.016 362.432 99.4972 361.898 98.8382 361.511C98.1791 361.117 97.4215 360.92 96.5654 360.92C95.8685 360.913 95.1829 361.042 94.5086 361.307C93.8344 361.572 93.3003 361.92 92.9063 362.352L89.0995 361.727L90.3154 349.727H103.815V353.25H93.8041L93.1336 359.42H93.27C93.7018 358.913 94.3116 358.492 95.0995 358.159C95.8874 357.818 96.751 357.648 97.6904 357.648C99.0995 357.648 100.357 357.981 101.463 358.648C102.569 359.307 103.44 360.216 104.077 361.375C104.713 362.534 105.031 363.86 105.031 365.352C105.031 366.89 104.675 368.261 103.963 369.466C103.259 370.663 102.278 371.606 101.02 372.295C99.77 372.977 98.323 373.318 96.6791 373.318ZM121.281 368.636V367.409C121.281 366.508 121.471 365.678 121.85 364.92C122.236 364.163 122.796 363.553 123.531 363.091C124.266 362.629 125.156 362.398 126.202 362.398C127.278 362.398 128.179 362.629 128.906 363.091C129.634 363.545 130.183 364.152 130.554 364.909C130.933 365.667 131.122 366.5 131.122 367.409V368.636C131.122 369.538 130.933 370.367 130.554 371.125C130.175 371.883 129.618 372.492 128.884 372.955C128.156 373.417 127.262 373.648 126.202 373.648C125.141 373.648 124.243 373.417 123.509 372.955C122.774 372.492 122.217 371.883 121.838 371.125C121.467 370.367 121.281 369.538 121.281 368.636ZM124.247 367.409V368.636C124.247 369.235 124.391 369.784 124.679 370.284C124.967 370.784 125.475 371.034 126.202 371.034C126.937 371.034 127.44 370.788 127.713 370.295C127.993 369.795 128.134 369.242 128.134 368.636V367.409C128.134 366.803 128.001 366.25 127.736 365.75C127.471 365.242 126.959 364.989 126.202 364.989C125.49 364.989 124.986 365.242 124.69 365.75C124.395 366.25 124.247 366.803 124.247 367.409ZM109.452 355.318V354.091C109.452 353.182 109.645 352.348 110.031 351.591C110.418 350.833 110.978 350.227 111.713 349.773C112.448 349.311 113.338 349.08 114.384 349.08C115.452 349.08 116.35 349.311 117.077 349.773C117.812 350.227 118.365 350.833 118.736 351.591C119.107 352.348 119.293 353.182 119.293 354.091V355.318C119.293 356.227 119.103 357.061 118.725 357.818C118.353 358.568 117.8 359.17 117.065 359.625C116.331 360.08 115.437 360.307 114.384 360.307C113.315 360.307 112.414 360.08 111.679 359.625C110.952 359.17 110.399 358.564 110.02 357.807C109.641 357.049 109.452 356.22 109.452 355.318ZM112.44 354.091V355.318C112.44 355.924 112.581 356.477 112.861 356.977C113.149 357.47 113.656 357.716 114.384 357.716C115.111 357.716 115.611 357.47 115.884 356.977C116.164 356.477 116.304 355.924 116.304 355.318V354.091C116.304 353.485 116.171 352.932 115.906 352.432C115.641 351.924 115.134 351.67 114.384 351.67C113.664 351.67 113.16 351.924 112.872 352.432C112.584 352.939 112.44 353.492 112.44 354.091ZM110.747 373L126.747 349.727H129.588L113.588 373H110.747Z" fill="#272727"/>
<path d="M325.536 267.273V251.545H329.104V267.273H325.536ZM319.456 261.193V257.625H335.183V261.193H319.456ZM339.345 271V267.955L347.425 260.034C348.197 259.254 348.841 258.561 349.357 257.955C349.872 257.348 350.258 256.761 350.516 256.193C350.773 255.625 350.902 255.019 350.902 254.375C350.902 253.64 350.735 253.011 350.402 252.489C350.069 251.958 349.61 251.549 349.027 251.261C348.444 250.973 347.781 250.83 347.038 250.83C346.273 250.83 345.603 250.989 345.027 251.307C344.451 251.617 344.004 252.061 343.686 252.636C343.375 253.212 343.22 253.898 343.22 254.693H339.209C339.209 253.216 339.546 251.932 340.22 250.841C340.894 249.75 341.822 248.905 343.004 248.307C344.194 247.708 345.557 247.409 347.095 247.409C348.656 247.409 350.027 247.701 351.209 248.284C352.391 248.867 353.307 249.667 353.959 250.682C354.618 251.697 354.947 252.856 354.947 254.159C354.947 255.03 354.781 255.886 354.447 256.727C354.114 257.568 353.527 258.5 352.686 259.523C351.853 260.545 350.682 261.784 349.175 263.239L345.163 267.318V267.477H355.3V271H339.345ZM367.822 271.443C365.951 271.443 364.345 270.97 363.004 270.023C361.671 269.068 360.644 267.693 359.925 265.898C359.213 264.095 358.857 261.924 358.857 259.386C358.864 256.848 359.224 254.689 359.936 252.909C360.656 251.121 361.682 249.758 363.016 248.818C364.357 247.879 365.959 247.409 367.822 247.409C369.686 247.409 371.288 247.879 372.629 248.818C373.97 249.758 374.997 251.121 375.709 252.909C376.429 254.697 376.788 256.856 376.788 259.386C376.788 261.932 376.429 264.106 375.709 265.909C374.997 267.705 373.97 269.076 372.629 270.023C371.296 270.97 369.694 271.443 367.822 271.443ZM367.822 267.886C369.277 267.886 370.425 267.17 371.266 265.739C372.114 264.299 372.538 262.182 372.538 259.386C372.538 257.538 372.345 255.985 371.959 254.727C371.572 253.47 371.027 252.523 370.322 251.886C369.618 251.242 368.785 250.92 367.822 250.92C366.375 250.92 365.232 251.64 364.391 253.08C363.55 254.511 363.125 256.614 363.118 259.386C363.11 261.242 363.296 262.803 363.675 264.068C364.061 265.333 364.607 266.288 365.311 266.932C366.016 267.568 366.853 267.886 367.822 267.886ZM393.007 266.636V265.409C393.007 264.508 393.197 263.678 393.575 262.92C393.962 262.163 394.522 261.553 395.257 261.091C395.992 260.629 396.882 260.398 397.928 260.398C399.003 260.398 399.905 260.629 400.632 261.091C401.359 261.545 401.909 262.152 402.28 262.909C402.659 263.667 402.848 264.5 402.848 265.409V266.636C402.848 267.538 402.659 268.367 402.28 269.125C401.901 269.883 401.344 270.492 400.609 270.955C399.882 271.417 398.988 271.648 397.928 271.648C396.867 271.648 395.969 271.417 395.234 270.955C394.5 270.492 393.943 269.883 393.564 269.125C393.193 268.367 393.007 267.538 393.007 266.636ZM395.973 265.409V266.636C395.973 267.235 396.117 267.784 396.405 268.284C396.693 268.784 397.2 269.034 397.928 269.034C398.662 269.034 399.166 268.788 399.439 268.295C399.719 267.795 399.859 267.242 399.859 266.636V265.409C399.859 264.803 399.727 264.25 399.462 263.75C399.197 263.242 398.685 262.989 397.928 262.989C397.215 262.989 396.712 263.242 396.416 263.75C396.121 264.25 395.973 264.803 395.973 265.409ZM381.178 253.318V252.091C381.178 251.182 381.371 250.348 381.757 249.591C382.143 248.833 382.704 248.227 383.439 247.773C384.174 247.311 385.064 247.08 386.109 247.08C387.178 247.08 388.075 247.311 388.803 247.773C389.537 248.227 390.09 248.833 390.462 249.591C390.833 250.348 391.018 251.182 391.018 252.091V253.318C391.018 254.227 390.829 255.061 390.45 255.818C390.079 256.568 389.526 257.17 388.791 257.625C388.056 258.08 387.162 258.307 386.109 258.307C385.041 258.307 384.14 258.08 383.405 257.625C382.678 257.17 382.125 256.564 381.746 255.807C381.367 255.049 381.178 254.22 381.178 253.318ZM384.166 252.091V253.318C384.166 253.924 384.306 254.477 384.587 254.977C384.875 255.47 385.382 255.716 386.109 255.716C386.837 255.716 387.337 255.47 387.609 254.977C387.89 254.477 388.03 253.924 388.03 253.318V252.091C388.03 251.485 387.897 250.932 387.632 250.432C387.367 249.924 386.859 249.67 386.109 249.67C385.39 249.67 384.886 249.924 384.598 250.432C384.31 250.939 384.166 251.492 384.166 252.091ZM382.473 271L398.473 247.727H401.314L385.314 271H382.473Z" fill="#272727"/>
<path d="M563.478 169.273V153.545H567.047V169.273H563.478ZM557.399 163.193V159.625H573.126V163.193H557.399ZM586.623 173.318C585.51 173.311 584.423 173.117 583.362 172.739C582.301 172.352 581.347 171.727 580.498 170.864C579.65 169.992 578.976 168.837 578.476 167.398C577.976 165.951 577.729 164.159 577.737 162.023C577.737 160.03 577.949 158.254 578.373 156.693C578.798 155.133 579.407 153.814 580.203 152.739C580.998 151.655 581.957 150.83 583.078 150.261C584.207 149.693 585.468 149.409 586.862 149.409C588.324 149.409 589.62 149.697 590.748 150.273C591.885 150.848 592.801 151.636 593.498 152.636C594.195 153.629 594.627 154.75 594.794 156H590.646C590.434 155.106 589.998 154.394 589.339 153.864C588.688 153.326 587.862 153.057 586.862 153.057C585.248 153.057 584.006 153.758 583.135 155.159C582.271 156.561 581.836 158.485 581.828 160.932H581.987C582.358 160.265 582.839 159.693 583.43 159.216C584.021 158.739 584.688 158.371 585.43 158.114C586.18 157.848 586.972 157.716 587.805 157.716C589.169 157.716 590.392 158.042 591.476 158.693C592.567 159.345 593.43 160.242 594.067 161.386C594.703 162.523 595.017 163.826 595.01 165.295C595.017 166.826 594.669 168.201 593.964 169.42C593.26 170.633 592.279 171.587 591.021 172.284C589.764 172.981 588.298 173.326 586.623 173.318ZM586.601 169.909C587.426 169.909 588.165 169.708 588.817 169.307C589.468 168.905 589.983 168.364 590.362 167.682C590.741 167 590.926 166.235 590.919 165.386C590.926 164.553 590.745 163.799 590.373 163.125C590.01 162.451 589.506 161.917 588.862 161.523C588.218 161.129 587.483 160.932 586.657 160.932C586.044 160.932 585.472 161.049 584.942 161.284C584.411 161.519 583.949 161.845 583.555 162.261C583.161 162.67 582.851 163.148 582.623 163.693C582.404 164.231 582.29 164.807 582.282 165.42C582.29 166.231 582.479 166.977 582.851 167.659C583.222 168.341 583.733 168.886 584.385 169.295C585.036 169.705 585.775 169.909 586.601 169.909ZM607.453 173.443C605.582 173.443 603.976 172.97 602.635 172.023C601.301 171.068 600.275 169.693 599.555 167.898C598.843 166.095 598.487 163.924 598.487 161.386C598.495 158.848 598.854 156.689 599.567 154.909C600.286 153.121 601.313 151.758 602.646 150.818C603.987 149.879 605.589 149.409 607.453 149.409C609.317 149.409 610.919 149.879 612.26 150.818C613.601 151.758 614.627 153.121 615.339 154.909C616.059 156.697 616.419 158.856 616.419 161.386C616.419 163.932 616.059 166.106 615.339 167.909C614.627 169.705 613.601 171.076 612.26 172.023C610.926 172.97 609.324 173.443 607.453 173.443ZM607.453 169.886C608.907 169.886 610.055 169.17 610.896 167.739C611.745 166.299 612.169 164.182 612.169 161.386C612.169 159.538 611.976 157.985 611.589 156.727C611.203 155.47 610.657 154.523 609.953 153.886C609.248 153.242 608.415 152.92 607.453 152.92C606.006 152.92 604.862 153.64 604.021 155.08C603.18 156.511 602.756 158.614 602.748 161.386C602.741 163.242 602.926 164.803 603.305 166.068C603.692 167.333 604.237 168.288 604.942 168.932C605.646 169.568 606.483 169.886 607.453 169.886ZM632.638 168.636V167.409C632.638 166.508 632.827 165.678 633.206 164.92C633.592 164.163 634.153 163.553 634.888 163.091C635.622 162.629 636.513 162.398 637.558 162.398C638.634 162.398 639.535 162.629 640.263 163.091C640.99 163.545 641.539 164.152 641.91 164.909C642.289 165.667 642.478 166.5 642.478 167.409V168.636C642.478 169.538 642.289 170.367 641.91 171.125C641.532 171.883 640.975 172.492 640.24 172.955C639.513 173.417 638.619 173.648 637.558 173.648C636.497 173.648 635.6 173.417 634.865 172.955C634.13 172.492 633.573 171.883 633.194 171.125C632.823 170.367 632.638 169.538 632.638 168.636ZM635.603 167.409V168.636C635.603 169.235 635.747 169.784 636.035 170.284C636.323 170.784 636.831 171.034 637.558 171.034C638.293 171.034 638.797 170.788 639.069 170.295C639.35 169.795 639.49 169.242 639.49 168.636V167.409C639.49 166.803 639.357 166.25 639.092 165.75C638.827 165.242 638.316 164.989 637.558 164.989C636.846 164.989 636.342 165.242 636.047 165.75C635.751 166.25 635.603 166.803 635.603 167.409ZM620.808 155.318V154.091C620.808 153.182 621.001 152.348 621.388 151.591C621.774 150.833 622.335 150.227 623.069 149.773C623.804 149.311 624.694 149.08 625.74 149.08C626.808 149.08 627.706 149.311 628.433 149.773C629.168 150.227 629.721 150.833 630.092 151.591C630.463 152.348 630.649 153.182 630.649 154.091V155.318C630.649 156.227 630.46 157.061 630.081 157.818C629.71 158.568 629.157 159.17 628.422 159.625C627.687 160.08 626.793 160.307 625.74 160.307C624.672 160.307 623.77 160.08 623.035 159.625C622.308 159.17 621.755 158.564 621.376 157.807C620.997 157.049 620.808 156.22 620.808 155.318ZM623.797 154.091V155.318C623.797 155.924 623.937 156.477 624.217 156.977C624.505 157.47 625.013 157.716 625.74 157.716C626.467 157.716 626.967 157.47 627.24 156.977C627.52 156.477 627.66 155.924 627.66 155.318V154.091C627.66 153.485 627.528 152.932 627.263 152.432C626.997 151.924 626.49 151.67 625.74 151.67C625.02 151.67 624.516 151.924 624.228 152.432C623.941 152.939 623.797 153.492 623.797 154.091ZM622.103 173L638.103 149.727H640.944L624.944 173H622.103Z" fill="#272727"/>
<path d="M774.168 59.2727V43.5455H777.736V59.2727H774.168ZM768.089 53.1932V49.625H783.816V53.1932H768.089ZM798.256 39.7273V63H794.04V43.8295H793.904L788.461 47.3068V43.4432L794.245 39.7273H798.256ZM812.768 63.4432C810.896 63.4432 809.29 62.9697 807.949 62.0227C806.616 61.0682 805.589 59.6932 804.87 57.8977C804.158 56.0947 803.802 53.9242 803.802 51.3864C803.809 48.8485 804.169 46.6894 804.881 44.9091C805.601 43.1212 806.627 41.7576 807.961 40.8182C809.302 39.8788 810.904 39.4091 812.768 39.4091C814.631 39.4091 816.233 39.8788 817.574 40.8182C818.915 41.7576 819.942 43.1212 820.654 44.9091C821.374 46.697 821.733 48.8561 821.733 51.3864C821.733 53.9318 821.374 56.1061 820.654 57.9091C819.942 59.7045 818.915 61.0758 817.574 62.0227C816.241 62.9697 814.639 63.4432 812.768 63.4432ZM812.768 59.8864C814.222 59.8864 815.37 59.1705 816.211 57.7386C817.059 56.2992 817.483 54.1818 817.483 51.3864C817.483 49.5379 817.29 47.9848 816.904 46.7273C816.518 45.4697 815.972 44.5227 815.268 43.8864C814.563 43.2424 813.73 42.9205 812.768 42.9205C811.321 42.9205 810.177 43.6402 809.336 45.0795C808.495 46.5114 808.071 48.6136 808.063 51.3864C808.055 53.2424 808.241 54.803 808.62 56.0682C809.006 57.3333 809.552 58.2879 810.256 58.9318C810.961 59.5682 811.798 59.8864 812.768 59.8864ZM834.111 63.4432C832.24 63.4432 830.634 62.9697 829.293 62.0227C827.96 61.0682 826.933 59.6932 826.214 57.8977C825.501 56.0947 825.145 53.9242 825.145 51.3864C825.153 48.8485 825.513 46.6894 826.225 44.9091C826.945 43.1212 827.971 41.7576 829.304 40.8182C830.645 39.8788 832.248 39.4091 834.111 39.4091C835.975 39.4091 837.577 39.8788 838.918 40.8182C840.259 41.7576 841.285 43.1212 841.998 44.9091C842.717 46.697 843.077 48.8561 843.077 51.3864C843.077 53.9318 842.717 56.1061 841.998 57.9091C841.285 59.7045 840.259 61.0758 838.918 62.0227C837.585 62.9697 835.982 63.4432 834.111 63.4432ZM834.111 59.8864C835.566 59.8864 836.714 59.1705 837.554 57.7386C838.403 56.2992 838.827 54.1818 838.827 51.3864C838.827 49.5379 838.634 47.9848 838.248 46.7273C837.861 45.4697 837.316 44.5227 836.611 43.8864C835.907 43.2424 835.073 42.9205 834.111 42.9205C832.664 42.9205 831.52 43.6402 830.679 45.0795C829.839 46.5114 829.414 48.6136 829.407 51.3864C829.399 53.2424 829.585 54.803 829.964 56.0682C830.35 57.3333 830.895 58.2879 831.6 58.9318C832.304 59.5682 833.142 59.8864 834.111 59.8864ZM859.296 58.6364V57.4091C859.296 56.5076 859.485 55.678 859.864 54.9205C860.25 54.1629 860.811 53.553 861.546 53.0909C862.281 52.6288 863.171 52.3977 864.216 52.3977C865.292 52.3977 866.194 52.6288 866.921 53.0909C867.648 53.5455 868.197 54.1515 868.569 54.9091C868.947 55.6667 869.137 56.5 869.137 57.4091V58.6364C869.137 59.5379 868.947 60.3674 868.569 61.125C868.19 61.8826 867.633 62.4924 866.898 62.9545C866.171 63.4167 865.277 63.6477 864.216 63.6477C863.156 63.6477 862.258 63.4167 861.523 62.9545C860.788 62.4924 860.232 61.8826 859.853 61.125C859.482 60.3674 859.296 59.5379 859.296 58.6364ZM862.262 57.4091V58.6364C862.262 59.2348 862.406 59.7841 862.694 60.2841C862.982 60.7841 863.489 61.0341 864.216 61.0341C864.951 61.0341 865.455 60.7879 865.728 60.2955C866.008 59.7955 866.148 59.2424 866.148 58.6364V57.4091C866.148 56.803 866.016 56.25 865.75 55.75C865.485 55.2424 864.974 54.9886 864.216 54.9886C863.504 54.9886 863 55.2424 862.705 55.75C862.41 56.25 862.262 56.803 862.262 57.4091ZM847.466 45.3182V44.0909C847.466 43.1818 847.66 42.3485 848.046 41.5909C848.432 40.8333 848.993 40.2273 849.728 39.7727C850.463 39.3106 851.353 39.0795 852.398 39.0795C853.466 39.0795 854.364 39.3106 855.091 39.7727C855.826 40.2273 856.379 40.8333 856.75 41.5909C857.122 42.3485 857.307 43.1818 857.307 44.0909V45.3182C857.307 46.2273 857.118 47.0606 856.739 47.8182C856.368 48.5682 855.815 49.1705 855.08 49.625C854.345 50.0795 853.451 50.3068 852.398 50.3068C851.33 50.3068 850.428 50.0795 849.694 49.625C848.966 49.1705 848.413 48.5644 848.035 47.8068C847.656 47.0492 847.466 46.2197 847.466 45.3182ZM850.455 44.0909V45.3182C850.455 45.9242 850.595 46.4773 850.875 46.9773C851.163 47.4697 851.671 47.7159 852.398 47.7159C853.125 47.7159 853.625 47.4697 853.898 46.9773C854.178 46.4773 854.319 45.9242 854.319 45.3182V44.0909C854.319 43.4848 854.186 42.9318 853.921 42.4318C853.656 41.9242 853.148 41.6705 852.398 41.6705C851.678 41.6705 851.175 41.9242 850.887 42.4318C850.599 42.9394 850.455 43.4924 850.455 44.0909ZM848.762 63L864.762 39.7273H867.603L851.603 63H848.762Z" fill="#272727"/>
<g clip-path="url(#clip0_15_62)">
<path opacity="0.3" d="M259.825 506.456C284.192 489.078 308.571 471.712 332.939 454.335C352.678 455.973 372.417 457.599 392.156 459.236C415.726 438.447 439.297 417.658 462.867 396.869C488.916 396.869 514.952 396.869 541.001 396.869C564.723 374.112 588.446 351.355 612.155 328.61C632.261 330.839 652.354 333.079 672.46 335.308C697.371 314.747 722.269 294.173 747.18 273.612C770.055 275.443 792.93 277.274 815.805 279.116C836.745 260.488 857.685 241.859 878.613 223.242C895.722 219.227 912.843 215.202 929.952 211.187C929.965 309.731 929.99 408.264 930.003 506.808C706.614 506.683 483.226 506.57 259.825 506.456Z" fill="url(#paint1_linear_15_62)"/>
<path d="M255.499 513.105C254.761 513.105 254.036 512.815 253.548 512.269C252.685 511.311 252.861 509.906 253.936 509.138L333.077 449.24L391.337 454.01L461.065 393.063H538.208L608.836 325.932L668.71 332.529L742.527 272.129L810.279 277.511L871.703 223.374L930.599 207.166C931.937 206.854 933.3 207.567 933.65 208.759C934 209.952 933.2 211.166 931.862 211.478L874.267 227.386L812.155 282.136L744.29 276.742L670.398 337.198L610.762 330.635L540.397 397.521H463.128L393.188 458.645L334.627 453.842L257.062 512.614C256.599 512.949 256.049 513.105 255.499 513.105Z" fill="#E3AD6E"/>
<path d="M871.65 235.312C876.62 235.312 880.65 231.282 880.65 226.312C880.65 221.341 876.62 217.312 871.65 217.312C866.679 217.312 862.65 221.341 862.65 226.312C862.65 231.282 866.679 235.312 871.65 235.312Z" fill="#E3AD6E"/>
<path d="M747.726 282.539C752.146 280.265 753.538 275.04 750.835 270.868C748.132 266.696 742.358 265.158 737.939 267.432C733.519 269.706 732.127 274.932 734.829 279.103C737.532 283.275 743.306 284.813 747.726 282.539Z" fill="#E3AD6E"/>
<path d="M615.026 335.162C619.445 332.888 620.837 327.663 618.135 323.491C615.432 319.32 609.658 317.782 605.238 320.056C600.818 322.33 599.426 327.555 602.129 331.727C604.832 335.898 610.606 337.436 615.026 335.162Z" fill="#E3AD6E"/>
<path d="M466.095 404.349C470.515 402.075 471.907 396.85 469.205 392.678C466.502 388.507 460.728 386.968 456.308 389.243C451.888 391.517 450.496 396.742 453.199 400.914C455.902 405.085 461.676 406.623 466.095 404.349Z" fill="#E3AD6E"/>
<path d="M339.564 460.789C343.983 458.515 345.375 453.29 342.673 449.118C339.97 444.946 334.196 443.408 329.776 445.682C325.356 447.957 323.964 453.182 326.667 457.353C329.37 461.525 335.144 463.063 339.564 460.789Z" fill="#E3AD6E"/>
<line x1="462.033" y1="405.657" x2="462.033" y2="507.356" stroke="#E3AD6E" stroke-width="2" stroke-linecap="round"/>
<line x1="612.165" y1="332.912" x2="612.165" y2="507.356" stroke="#E3AD6E" stroke-width="2" stroke-linecap="round"/>
<line x1="743.724" y1="283.384" x2="743.724" y2="507.356" stroke="#E3AD6E" stroke-width="2" stroke-linecap="round"/>
<line x1="872.188" y1="236.951" x2="872.188" y2="505.808" stroke="#E3AD6E" stroke-width="2" stroke-linecap="round"/>
<line x1="336.665" y1="458.28" x2="336.665" y2="505.808" stroke="#E3AD6E" stroke-width="2" stroke-linecap="round"/>
</g>
<defs>
<linearGradient id="paint0_linear_15_62" x1="-1.7383e-05" y1="473" x2="919.92" y2="42.7558" gradientUnits="userSpaceOnUse">
<stop stop-color="#FAF1E9"/>
<stop offset="1" stop-color="#FFB571"/>
</linearGradient>
<linearGradient id="paint1_linear_15_62" x1="594.144" y1="573.02" x2="599.046" y2="55.4353" gradientUnits="userSpaceOnUse">
<stop stop-color="white" stop-opacity="0"/>
<stop offset="0.5224" stop-color="#F7AA5E"/>
</linearGradient>
<clipPath id="clip0_15_62">
<rect width="681" height="266" fill="white" transform="translate(253 207)"/>
</clipPath>
</defs>
</svg>
