<svg width="63" height="67" viewBox="0 0 63 67" fill="none" xmlns="http://www.w3.org/2000/svg">
<path d="M58.424 25.0976C59.7255 28.4356 60.4399 32.0687 60.4399 35.8658C60.4399 52.1986 47.222 65.4851 30.9735 65.4851C14.7251 65.4851 1.50708 52.1986 1.50708 35.8658C1.50708 20.0544 13.8965 7.0958 29.4273 6.28588C29.8416 6.26621 30.1645 5.91863 30.158 5.52187C30.1547 5.10216 29.7861 4.75131 29.3457 4.77426C27.1275 4.89558 16.803 5.69894 8.54993 14.408C3.2523 19.9954 0 27.5568 0 35.8658C0 53.0314 13.8932 67 30.9735 67C48.0538 67 61.947 53.0347 61.947 35.8658C61.947 31.8753 61.1967 28.0585 59.8267 24.5467C59.5885 24.2253 59.1612 24.127 58.8317 24.2975C58.5512 24.445 58.3881 24.7631 58.424 25.0976Z" fill="#FF8E0A"/>
<path d="M4.45605 35.8659C4.45605 50.0902 15.5439 61.7143 29.5024 62.4816C45.5747 63.3636 58.3131 50.5755 57.4487 34.4198C57.3019 31.6851 56.7473 29.0619 55.8404 26.6059C55.7524 26.3666 55.4849 26.2518 55.25 26.3436L31.5542 35.6396C31.2671 35.7511 30.9507 35.5478 30.9344 35.2396L29.6002 9.71247C29.5872 9.45999 29.3719 9.26325 29.1174 9.27964C15.3416 10.2306 4.45605 21.7694 4.45605 35.8659Z" fill="#FF8E0A"/>
<path d="M34.0725 1.50834C46.5435 1.50834 57.2301 9.33534 61.523 20.3627C61.7448 20.8873 62.3417 21.048 62.6875 20.825C62.9648 20.6446 63.092 20.2118 62.9257 19.8151C61.9209 17.241 58.9263 10.601 51.7204 5.5612C46.7098 2.05594 40.626 0 34.0692 0C33.5245 0 32.983 0.0131164 32.4447 0.0426275C32.1218 0.160672 31.9097 0.475456 31.9261 0.819753C31.9424 1.16733 32.1838 1.469 32.523 1.55425C32.9047 1.52802 33.4364 1.50834 34.0725 1.50834Z" fill="#F7AA5E"/>
<path d="M58.3164 21.6218C58.5773 21.5201 58.698 21.2217 58.5936 20.9627C54.6171 11.2863 45.1375 4.47583 34.0758 4.47583H33.1918C32.9145 4.47583 32.6927 4.70864 32.709 4.98735L34.0399 30.439C34.0562 30.7768 34.3987 30.9997 34.7152 30.8784L58.3164 21.6218Z" fill="#F7AA5E"/>
</svg>
