<svg width="81" height="81" viewBox="0 0 81 81" fill="none" xmlns="http://www.w3.org/2000/svg">
<g filter="url(#filter0_d_3_149)">
<rect x="6.5" y="6.5" width="64" height="64" rx="32" fill="white" shape-rendering="crispEdges"/>
<path d="M49.6501 37.55H39.15V27.05C39.15 26.4701 38.6799 26 38.1 26C37.5202 26 37.0501 26.4701 37.0501 27.05V37.55H26.55C25.9701 37.55 25.5 38.0201 25.5 38.6C25.5 39.1799 25.9701 39.65 26.55 39.65H37.05V50.15C37.05 50.7299 37.5201 51.2 38.1 51.2C38.6799 51.2 39.15 50.7299 39.15 50.15V39.65H49.65C50.2299 39.65 50.7 39.1799 50.7 38.6C50.7001 38.0201 50.23 37.55 49.6501 37.55Z" fill="#FF8E0A"/>
</g>
<defs>
<filter id="filter0_d_3_149" x="0.5" y="0.5" width="80" height="80" filterUnits="userSpaceOnUse" color-interpolation-filters="sRGB">
<feFlood flood-opacity="0" result="BackgroundImageFix"/>
<feColorMatrix in="SourceAlpha" type="matrix" values="0 0 0 0 0 0 0 0 0 0 0 0 0 0 0 0 0 0 127 0" result="hardAlpha"/>
<feOffset dx="2" dy="2"/>
<feGaussianBlur stdDeviation="4"/>
<feComposite in2="hardAlpha" operator="out"/>
<feColorMatrix type="matrix" values="0 0 0 0 0.6 0 0 0 0 0.6 0 0 0 0 0.6 0 0 0 0.15 0"/>
<feBlend mode="normal" in2="BackgroundImageFix" result="effect1_dropShadow_3_149"/>
<feBlend mode="normal" in="SourceGraphic" in2="effect1_dropShadow_3_149" result="shape"/>
</filter>
</defs>
</svg>
