<svg width="81" height="81" viewBox="0 0 81 81" fill="none" xmlns="http://www.w3.org/2000/svg">
<g filter="url(#filter0_d_3_146)">
<rect x="6.5" y="6.5" width="64" height="64" rx="32" fill="white" shape-rendering="crispEdges"/>
<g clip-path="url(#clip0_3_146)">
<path d="M50.0889 46.4881L50.0889 46.4876L50.1242 39.6111L50.1242 39.611M50.0889 46.4881L48.9691 38.3564C49.1341 38.3557 49.2976 38.3877 49.4502 38.4506C49.6028 38.5134 49.7414 38.6058 49.8581 38.7225C49.9748 38.8392 50.0672 38.9778 50.1301 39.1304C50.1929 39.283 50.2249 39.4465 50.2242 39.6115L50.1242 39.611M50.0889 46.4881C50.0883 47.4553 49.7038 48.3828 49.0198 49.0667C48.3359 49.7507 47.4084 50.1352 46.4411 50.1358L46.4411 50.1358L39.591 50.1446L39.5907 50.1446C39.4389 50.1453 39.2885 50.1158 39.1481 50.058C39.0077 50.0002 38.8802 49.9152 38.7728 49.8078C38.6655 49.7005 38.5804 49.5729 38.5226 49.4325C38.4648 49.2922 38.4354 49.1417 38.436 48.9899L38.436 48.9891C38.4354 48.8373 38.4648 48.6869 38.5226 48.5465C38.5804 48.4061 38.6655 48.2786 38.7728 48.1712C38.8802 48.0639 39.0077 47.9788 39.1481 47.921C39.2885 47.8632 39.4389 47.8338 39.5907 47.8344H39.591L45.9815 47.8432L46.2233 47.8436L46.0523 47.6725L27.9769 29.5971C27.7612 29.3814 27.6401 29.0889 27.6401 28.7839C27.6401 28.4789 27.7612 28.1864 27.9769 27.9708C28.1925 27.7551 28.4851 27.6339 28.7901 27.6339C29.0951 27.6339 29.3876 27.7551 29.6032 27.9708L47.6256 45.9931L47.7953 46.1628L47.7963 45.9229L47.8228 39.6031L47.8228 39.603C47.8237 39.2992 47.9448 39.008 48.1597 38.7932C48.3745 38.5784 48.6656 38.4573 48.9694 38.4564L48.9695 38.4564C49.1213 38.4558 49.2718 38.4852 49.4121 38.543C49.5525 38.6008 49.6801 38.6859 49.7874 38.7932C49.8948 38.9006 49.9798 39.0281 50.0376 39.1685C50.0954 39.3088 50.1248 39.4592 50.1242 39.611M50.0889 46.4881L50.1242 39.611M49.0905 49.1374C49.7932 48.4347 50.1883 47.4819 50.1889 46.4881L46.4412 50.2358C47.435 50.2352 48.3878 49.8401 49.0905 49.1374Z" fill="#FF8E0A" stroke="#F4F5F7" stroke-width="0.2"/>
</g>
</g>
<defs>
<filter id="filter0_d_3_146" x="0.5" y="0.5" width="80" height="80" filterUnits="userSpaceOnUse" color-interpolation-filters="sRGB">
<feFlood flood-opacity="0" result="BackgroundImageFix"/>
<feColorMatrix in="SourceAlpha" type="matrix" values="0 0 0 0 0 0 0 0 0 0 0 0 0 0 0 0 0 0 127 0" result="hardAlpha"/>
<feOffset dx="2" dy="2"/>
<feGaussianBlur stdDeviation="4"/>
<feComposite in2="hardAlpha" operator="out"/>
<feColorMatrix type="matrix" values="0 0 0 0 0.6 0 0 0 0 0.6 0 0 0 0 0.6 0 0 0 0.15 0"/>
<feBlend mode="normal" in2="BackgroundImageFix" result="effect1_dropShadow_3_146"/>
<feBlend mode="normal" in="SourceGraphic" in2="effect1_dropShadow_3_146" result="shape"/>
</filter>
<clipPath id="clip0_3_146">
<rect width="30" height="30" fill="white" transform="translate(23.5 23.5)"/>
</clipPath>
</defs>
</svg>
