<svg width="16" height="16" viewBox="0 0 16 16" fill="none" xmlns="http://www.w3.org/2000/svg">
<g clip-path="url(#clip0_23_117)">
<rect width="16" height="16" rx="2" fill="#FF8E0A"/>
<path d="M5.48222 11.0412L5.83938 11.4057L6.19654 11.0412L12.8811 4.21813C12.9177 4.18073 12.959 4.16663 12.9966 4.16663C13.0341 4.16663 13.0754 4.18073 13.112 4.21813C13.1849 4.29246 13.1849 4.40862 13.1122 4.48302C13.1122 4.48307 13.1121 4.48313 13.112 4.48318L5.95503 11.7816L5.95487 11.7818C5.88759 11.8505 5.78442 11.8505 5.71715 11.7818L2.88803 8.89405C2.81515 8.81966 2.81515 8.70338 2.88803 8.62899C2.92466 8.5916 2.96599 8.57749 3.00352 8.57749C3.04104 8.57749 3.08237 8.5916 3.119 8.62899L5.48222 11.0412Z" fill="white" stroke="white"/>
</g>
<defs>
<clipPath id="clip0_23_117">
<rect width="16" height="16" rx="2" fill="white"/>
</clipPath>
</defs>
</svg>
