<svg width="47" height="30" viewBox="0 0 47 30" fill="none" xmlns="http://www.w3.org/2000/svg">
<path d="M6.08577 26.9151C4.65848 26.8502 3.88314 26.6127 3.36743 26.4115C2.6841 26.1455 2.19693 25.8288 1.68407 25.3166C1.17122 24.8045 0.853806 24.3173 0.589176 23.634C0.388029 23.1183 0.150504 22.3429 0.0855946 20.9157C0.0142658 19.3728 0 18.9099 0 15.0011C0 11.0923 0.0156923 10.63 0.0848813 9.08577C0.14979 7.65848 0.388742 6.88457 0.588463 6.36743C0.854519 5.6841 1.17193 5.19693 1.68336 4.68336C2.1955 4.17122 2.68268 3.85309 3.36672 3.58846C3.88243 3.38732 4.65777 3.14979 6.08506 3.08488C7.62861 3.01427 8.09225 3 11.9996 3C15.9085 3 16.3707 3.01569 17.9149 3.08488C19.3422 3.14979 20.1161 3.38874 20.6333 3.58846C21.3166 3.85309 21.8038 4.17122 22.3166 4.68336C22.8295 5.1955 23.1455 5.68339 23.4115 6.36672C23.6127 6.88243 23.8502 7.65777 23.9151 9.08506C23.9857 10.6293 24 11.0915 24 15.0004C24 18.9077 23.9857 19.3714 23.9151 20.9157C23.8502 22.3429 23.6113 23.1183 23.4115 23.634C23.1455 24.3173 22.8288 24.8045 22.3166 25.3166C21.8045 25.8288 21.3166 26.1455 20.6333 26.4115C20.1176 26.6127 19.3422 26.8502 17.9149 26.9151C16.3721 26.9857 15.9085 27 11.9996 27C8.09225 27 7.62862 26.9864 6.08577 26.9151" fill="url(#paint0_radial_16_112)"/>
<path d="M9.27709 14.915C9.27709 13.4579 10.4579 12.2765 11.915 12.2765C13.3721 12.2765 14.5535 13.4579 14.5535 14.915C14.5535 16.3721 13.3721 17.5535 11.915 17.5535C10.4579 17.5535 9.27709 16.3721 9.27709 14.915M7.85074 14.915C7.85074 17.1597 9.67031 18.9793 11.915 18.9793C14.1597 18.9793 15.9793 17.1597 15.9793 14.915C15.9793 12.6703 14.1597 10.8507 11.915 10.8507C9.67031 10.8507 7.85081 12.6702 7.85081 14.915M15.1904 10.6896C15.1903 10.8774 15.246 11.0611 15.3503 11.2173C15.4546 11.3736 15.6029 11.4954 15.7764 11.5673C15.9499 11.6393 16.1409 11.6582 16.3251 11.6216C16.5094 11.585 16.6787 11.4946 16.8116 11.3619C16.9444 11.2291 17.035 11.0599 17.0717 10.8756C17.1084 10.6914 17.0897 10.5004 17.0179 10.3269C16.946 10.1533 16.8244 10.0049 16.6682 9.90045C16.5121 9.79603 16.3284 9.74025 16.1406 9.74017H16.1402C15.8884 9.74029 15.647 9.84034 15.4689 10.0184C15.2908 10.1964 15.1906 10.4378 15.1904 10.6896M8.71734 21.3577C7.94566 21.3225 7.52623 21.194 7.24749 21.0854C6.87796 20.9415 6.61429 20.7702 6.33708 20.4934C6.05986 20.2165 5.88827 19.9531 5.74504 19.5836C5.63638 19.305 5.50784 18.8854 5.47276 18.1137C5.43439 17.2794 5.42673 17.0288 5.42673 14.9151C5.42673 12.8014 5.43502 12.5515 5.47276 11.7165C5.5079 10.9448 5.63739 10.5261 5.74504 10.2467C5.8889 9.87713 6.06024 9.61347 6.33708 9.33625C6.61391 9.05904 6.87732 8.88744 7.24749 8.74421C7.5261 8.63556 7.94566 8.50702 8.71734 8.47194C9.55164 8.43356 9.80227 8.4259 11.915 8.4259C14.0277 8.4259 14.2786 8.43407 15.1136 8.47206C15.8853 8.50721 16.304 8.6367 16.5835 8.74434C16.953 8.88757 17.2167 9.05955 17.4939 9.33638C17.7711 9.61322 17.9421 9.87726 18.0859 10.2468C18.1946 10.5254 18.3231 10.945 18.3582 11.7166C18.3966 12.5516 18.4042 12.8016 18.4042 14.9153C18.4042 17.0289 18.3966 17.2789 18.3582 18.1139C18.323 18.8855 18.1939 19.305 18.0859 19.5837C17.9421 19.9532 17.7707 20.2169 17.4939 20.4935C17.217 20.7701 16.953 20.9417 16.5835 21.0855C16.3048 21.1942 15.8853 21.3227 15.1136 21.3578C14.2793 21.3962 14.0287 21.4038 11.915 21.4038C9.80132 21.4038 9.55139 21.3962 8.71734 21.3578M8.6518 7.04793C7.8092 7.08631 7.23344 7.21991 6.73061 7.41557C6.21018 7.61762 5.76903 7.8887 5.32852 8.32852C4.888 8.76834 4.61762 9.20955 4.41557 9.73061C4.21991 10.2338 4.08631 10.8092 4.04793 11.6518C4.00893 12.4957 4 12.7655 4 14.915C4 17.0645 4.00893 17.3343 4.04793 18.1782C4.08631 19.0209 4.21991 19.5962 4.41557 20.0994C4.61762 20.6198 4.88806 21.0619 5.32852 21.5015C5.76897 21.9411 6.20955 22.2118 6.73061 22.4144C7.23439 22.6101 7.8092 22.7437 8.6518 22.7821C9.49618 22.8204 9.76554 22.83 11.915 22.83C14.0645 22.83 14.3343 22.8211 15.1782 22.7821C16.0209 22.7437 16.5962 22.6101 17.0994 22.4144C17.6198 22.2118 18.061 21.9413 18.5015 21.5015C18.942 21.0617 19.2118 20.6198 19.4144 20.0994C19.6101 19.5962 19.7443 19.0208 19.7821 18.1782C19.8204 17.3336 19.8294 17.0645 19.8294 14.915C19.8294 12.7655 19.8204 12.4957 19.7821 11.6518C19.7437 10.8091 19.6101 10.2334 19.4144 9.73061C19.2118 9.21018 18.9413 8.76903 18.5015 8.32852C18.0617 7.888 17.6198 7.61762 17.1 7.41557C16.5962 7.21991 16.0208 7.08567 15.1788 7.04793C14.3348 7.00937 14.0651 7 11.916 7C9.76681 7 9.49649 7.00893 8.65212 7.04793" fill="#F4F4F4"/>
<rect x="18.5" y="1.5" width="27" height="27" rx="13.5" fill="url(#paint1_linear_16_112)"/>
<path fill-rule="evenodd" clip-rule="evenodd" d="M25.4321 14.8733C28.9303 13.3492 31.263 12.3444 32.4302 11.859C35.7627 10.4728 36.4552 10.2321 36.9065 10.2241C37.0058 10.2224 37.2278 10.247 37.3715 10.3636C37.4929 10.4621 37.5263 10.5952 37.5423 10.6886C37.5583 10.782 37.5782 10.9948 37.5624 11.161C37.3818 13.0585 36.6004 17.6632 36.2028 19.7884C36.0346 20.6876 35.7034 20.9892 35.3828 21.0187C34.6859 21.0828 34.1567 20.5581 33.4818 20.1157C32.4256 19.4234 31.829 18.9924 30.8038 18.3168C29.619 17.5361 30.387 17.107 31.0622 16.4057C31.239 16.2221 34.3093 13.4294 34.3688 13.176C34.3762 13.1443 34.3831 13.0262 34.3129 12.9639C34.2428 12.9015 34.1392 12.9228 34.0645 12.9398C33.9586 12.9638 32.2713 14.079 29.0028 16.2854C28.5239 16.6142 28.0901 16.7745 27.7015 16.7661C27.273 16.7568 26.4488 16.5238 25.8361 16.3246C25.0846 16.0804 24.4873 15.9512 24.5393 15.5363C24.5664 15.3202 24.864 15.0992 25.4321 14.8733Z" fill="#F4F4F4"/>
<rect x="18.5" y="1.5" width="27" height="27" rx="13.5" stroke="white" stroke-width="3"/>
<defs>
<radialGradient id="paint0_radial_16_112" cx="0" cy="0" r="1" gradientUnits="userSpaceOnUse" gradientTransform="translate(1.55326 26.4742) scale(30.4711)">
<stop offset="0.09" stop-color="#FA8F21"/>
<stop offset="0.78" stop-color="#D82D7E"/>
</radialGradient>
<linearGradient id="paint1_linear_16_112" x1="32" y1="3" x2="32" y2="26.822" gradientUnits="userSpaceOnUse">
<stop stop-color="#2AABEE"/>
<stop offset="1" stop-color="#229ED9"/>
</linearGradient>
</defs>
</svg>
