<svg width="131" height="71" viewBox="0 0 131 71" fill="none" xmlns="http://www.w3.org/2000/svg">
<path d="M0.596922 71C0.926593 71 1.19384 70.7312 1.19384 70.3997C1.19384 70.0681 0.926593 69.7993 0.596922 69.7993C0.267251 69.7993 0 70.0681 0 70.3997C0 70.7312 0.267251 71 0.596922 71Z" fill="#BFBFBF"/>
<path d="M3.52184 70.3852H129.94" stroke="#BFBFBF" stroke-width="0.5" stroke-miterlimit="10" stroke-linecap="round"/>
<path d="M20.1974 66.9416H5.87132V54.8986C5.87132 52.7757 7.58091 51.0563 9.69162 51.0563H16.3771C18.4879 51.0563 20.1974 52.7757 20.1974 54.8986V66.9416Z" fill="#F4D2B5" fill-opacity="0.8"/>
<path d="M41.2664 66.9416H26.9403V45.2473C26.9403 43.1245 28.6499 41.4051 30.7606 41.4051H37.4461C39.5568 41.4051 41.2664 43.1245 41.2664 45.2473V66.9416Z" fill="#EFC59E" fill-opacity="0.8"/>
<path d="M62.333 66.9416H48.0068V24.6144C48.0068 22.4916 49.7164 20.7722 51.8271 20.7722H58.5127C60.6234 20.7722 62.333 22.4916 62.333 24.6144V66.9416Z" fill="#F4BB82" fill-opacity="0.8"/>
<path d="M83.4019 66.9416H69.0758V26.8862C69.0758 24.7633 70.7854 23.0439 72.8961 23.0439H79.5816C81.6923 23.0439 83.4019 24.7633 83.4019 26.8862V66.9416Z" fill="#FCA651" fill-opacity="0.8"/>
<path d="M104.469 66.9416H90.1426V15.1625C90.1426 13.0396 91.8522 11.3202 93.9629 11.3202H100.648C102.759 11.3202 104.469 13.0396 104.469 15.1625V66.9416Z" fill="#F79237" fill-opacity="0.8"/>
<path d="M125.537 66.9416H111.211V3.84225C111.211 1.71941 112.921 0 115.032 0H121.717C123.828 0 125.537 1.71941 125.537 3.84225V66.9416Z" fill="#F98410" fill-opacity="0.8"/>
</svg>
